<svg xmlns="http://www.w3.org/2000/svg" viewBox="0 0 512 512">
  <rect width="512" height="512" rx="112" fill="#eef2f7"/>
  <path fill="#0a84ff" d="M112 168c0-31 25-56 56-56h176c31 0 56 25 56 56v176c0 31-25 56-56 56H168c-31 0-56-25-56-56z"/>
  <path fill="#fff" d="M169 178c0-10 8-18 18-18h138c10 0 18 8 18 18v30c0 10-8 18-18 18H187c-10 0-18-8-18-18zM169 269c0-12 10-22 22-22h15c12 0 22 10 22 22v15c0 12-10 22-22 22h-15c-12 0-22-10-22-22zM239 269c0-12 10-22 22-22h15c12 0 22 10 22 22v15c0 12-10 22-22 22h-15c-12 0-22-10-22-22zM309 269c0-12 10-22 22-22h15c12 0 22 10 22 22v85c0 12-10 22-22 22h-15c-12 0-22-10-22-22zM169 339c0-12 10-22 22-22h15c12 0 22 10 22 22v15c0 12-10 22-22 22h-15c-12 0-22-10-22-22zM239 339c0-12 10-22 22-22h15c12 0 22 10 22 22v15c0 12-10 22-22 22h-15c-12 0-22-10-22-22z"/>
</svg>
